<svg width="24" height="19" viewBox="0 0 24 19" fill="none" xmlns="http://www.w3.org/2000/svg">
<path d="M22 4.72933V16.4897C22 16.6859 21.9221 16.874 21.7834 17.0127C21.6447 17.1514 21.4566 17.2293 21.2604 17.2293H2.83333C2.61232 17.2293 2.40036 17.1415 2.24408 16.9853C2.0878 16.829 2 16.617 2 16.396V2.22933C2 2.00832 2.0878 1.79635 2.24408 1.64007C2.40036 1.48379 2.61232 1.396 2.83333 1.396H8.38542C8.5656 1.39674 8.74082 1.45514 8.88542 1.56266L11.7812 3.72933C11.9258 3.83685 12.1011 3.89526 12.2812 3.896H21.1667C21.3877 3.896 21.5996 3.98379 21.7559 4.14007C21.9122 4.29635 22 4.50832 22 4.72933Z" stroke="#0073E6" stroke-width="2.5" stroke-linecap="round" stroke-linejoin="round"/>
</svg>
