<svg width="24" height="24" viewBox="0 0 24 24" fill="none" xmlns="http://www.w3.org/2000/svg">
<path d="M20.88 15.84H20.1121C20.0643 15.7678 20.04 15.6722 19.9678 15.6C19.6556 15.1678 19.1522 14.88 18.6 14.8078C17.2322 14.6634 15.6244 14.6634 14.2555 14.8078C13.7033 14.8556 13.1999 15.1678 12.8633 15.6234C12.8389 15.6478 12.8389 15.6712 12.8389 15.6712C12.2867 15.479 11.6867 15.479 11.1345 15.6712C11.1102 15.6469 11.1102 15.6234 11.1102 15.6234C10.798 15.1678 10.2945 14.879 9.71797 14.8078C8.35016 14.6634 6.74245 14.6634 5.37349 14.8078C4.8213 14.8556 4.3413 15.1434 4.00568 15.6C3.95787 15.6722 3.91005 15.7678 3.86131 15.84H3.11975C2.85537 15.84 2.59195 16.0322 2.56756 16.32C2.54319 16.6322 2.78319 16.8956 3.09537 16.8956H3.69537C3.69537 16.9678 3.69537 17.0634 3.71974 17.1356L3.91193 18.0234C4.22412 19.559 5.56755 20.6389 7.12745 20.6634H7.94307H7.96744C9.47963 20.6634 10.7997 19.6312 11.183 18.1679L11.423 17.2079C11.423 17.1601 11.4473 17.1357 11.4473 17.0879C11.4951 16.8235 11.7117 16.6079 11.9995 16.6079H12.0473C12.3351 16.6079 12.5517 16.8235 12.5995 17.0879C12.5995 17.1357 12.6239 17.1835 12.6239 17.2079L12.8639 18.1679C13.2239 19.6557 14.5439 20.6634 16.0794 20.6634H16.1038H16.9194C18.455 20.6391 19.8239 19.5356 20.1349 18.0234L20.3271 17.1356C20.3515 17.0634 20.3515 16.9678 20.3515 16.8956H20.9515C21.2637 16.8956 21.5037 16.6312 21.4793 16.32C21.4071 16.0322 21.1437 15.84 20.8793 15.84H20.88Z" fill="white" fill-opacity="0.75"/>
<path d="M18.2878 4.96776C17.8321 3.76776 16.5599 3.09556 15.3122 3.38337L12.5522 4.00776C12.1679 4.10338 11.7844 4.10338 11.4 4.00776L8.64004 3.38337C7.39224 3.09556 6.14452 3.76776 5.66452 4.96776L3.69672 10.0555H20.2322L18.2878 4.96776Z" fill="white" fill-opacity="0.75"/>
<path d="M23.1845 12.5278L21.1201 11.0878H2.88008L0.815693 12.5034C0.407885 12.8156 0.600068 13.4399 1.10444 13.4399H22.8967C23.4001 13.4399 23.5923 12.8156 23.1845 12.5278Z" fill="white" fill-opacity="0.75"/>
</svg>
