<svg width="16" height="12" viewBox="0 0 16 12" fill="none" xmlns="http://www.w3.org/2000/svg">
<path fill-rule="evenodd" clip-rule="evenodd" d="M9.72162 0.340879C9.39212 0.0113738 8.85788 0.0113738 8.52838 0.340879C8.19887 0.670384 8.19887 1.20462 8.52838 1.53412L12.1505 5.15625H1.8125C1.34651 5.15625 0.96875 5.53401 0.96875 6C0.96875 6.46599 1.34651 6.84375 1.8125 6.84375H12.1505L8.52838 10.4659C8.19887 10.7954 8.19887 11.3296 8.52838 11.6591C8.85788 11.9886 9.39212 11.9886 9.72162 11.6591L14.7841 6.59662C14.9475 6.4332 15.0299 6.21941 15.0312 6.00522C15.0312 6.00348 15.0312 6.00174 15.0312 6C15.0312 5.99826 15.0312 5.99652 15.0312 5.99478C15.0306 5.88228 15.0079 5.77499 14.9672 5.67703C14.9261 5.57751 14.865 5.48427 14.7841 5.40338L9.72162 0.340879Z" fill="#455E78"/>
</svg>
