<svg width="16" height="16" viewBox="0 0 16 16" fill="none" xmlns="http://www.w3.org/2000/svg">
<path fill-rule="evenodd" clip-rule="evenodd" d="M10.1464 7.14645C10.3417 6.95118 10.6583 6.95118 10.8536 7.14645L14.8536 11.1464C15.0488 11.3417 15.0488 11.6583 14.8536 11.8536L10.8536 15.8536C10.6583 16.0488 10.3417 16.0488 10.1464 15.8536C9.95118 15.6583 9.95118 15.3417 10.1464 15.1464L13.7929 11.5L10.1464 7.85355C9.95118 7.65829 9.95118 7.34171 10.1464 7.14645Z" fill="#768EAF"/>
<path fill-rule="evenodd" clip-rule="evenodd" d="M2.5 0C2.77614 0 3 0.223858 3 0.5V11H14.5C14.7761 11 15 11.2239 15 11.5C15 11.7761 14.7761 12 14.5 12C14.5 12 2.77614 12 2.5 12C2.22386 12 2 11.7761 2 11.5V0.5C2 0.223858 2.22386 0 2.5 0Z" fill="#768EAF"/>
</svg>
