<svg width="38" height="32" viewBox="0 0 38 32" fill="none" xmlns="http://www.w3.org/2000/svg">
<path d="M33.2318 31.2061H4.7682C2.62533 31.2061 0.886795 29.4676 0.886795 27.3247V9.21148C0.886795 7.06861 2.62533 5.33008 4.7682 5.33008H33.2318C35.3747 5.33008 37.1132 7.06861 37.1132 9.21148V27.3247C37.1132 29.4676 35.3747 31.2061 33.2318 31.2061ZM4.7682 7.91768C4.05336 7.91768 3.4744 8.49664 3.4744 9.21148V27.3247C3.4744 27.6675 3.61024 27.9975 3.85283 28.24C4.09542 28.4826 4.42533 28.6185 4.76818 28.6185H33.2318C33.5746 28.6185 33.9046 28.4826 34.1471 28.24C34.3897 27.9974 34.5256 27.6675 34.5256 27.3247V9.21148C34.5256 8.86862 34.3897 8.5387 34.1471 8.29613C33.9046 8.05354 33.5746 7.9177 33.2318 7.9177L4.7682 7.91768Z" fill="white"/>
<path d="M29.3504 7.91571H19C18.6022 7.91732 18.2253 7.73619 17.9779 7.42406C17.7191 7.11517 17.6189 6.70438 17.7062 6.31139L19 1.13619C19.1455 0.544272 19.6841 0.1351 20.2938 0.152903H28.0566C28.6663 0.135113 29.2048 0.544276 29.3504 1.13619L30.6442 6.31139C30.7428 6.69791 30.6571 7.10871 30.4113 7.42406C30.1558 7.74751 29.7628 7.93028 29.3504 7.91571H29.3504ZM20.6561 5.3281H27.6944L27.0475 2.7405H21.303L20.6561 5.3281Z" fill="white"/>
<path d="M24.1752 26.0297C22.1164 26.0297 20.1418 25.2113 18.6862 23.7558C17.2307 22.3003 16.4123 20.3256 16.4123 18.2668C16.4123 16.208 17.2307 14.2334 18.6862 12.7778C20.1417 11.3223 22.1164 10.5039 24.1752 10.5039C26.234 10.5039 28.2086 11.3223 29.6642 12.7778C31.1198 14.2333 31.9381 16.208 31.9381 18.2668C31.9381 20.3256 31.1198 22.3002 29.6642 23.7558C28.2087 25.2113 26.234 26.0297 24.1752 26.0297ZM24.1752 13.0917C22.0825 13.0917 20.1951 14.3531 19.3946 16.2857C18.5924 18.22 19.0355 20.447 20.5153 21.9267C21.9951 23.4065 24.222 23.8496 26.1563 23.0474C28.0889 22.2469 29.3503 20.3596 29.3503 18.2668C29.3503 16.8938 28.8053 15.5773 27.8349 14.607C26.8646 13.6366 25.5482 13.0916 24.1751 13.0916L24.1752 13.0917Z" fill="#56C6FE"/>
<path d="M30.6442 11.796C30.2998 11.7977 29.9698 11.6634 29.7256 11.4208C29.4895 11.1734 29.3553 10.8451 29.3504 10.5022C29.3439 10.4165 29.3439 10.3292 29.3504 10.2435C29.365 10.1626 29.3908 10.0834 29.428 10.0106C29.4571 9.9281 29.496 9.85047 29.5445 9.7777C29.593 9.70977 29.6447 9.64508 29.6997 9.58363C30.0717 9.21651 30.628 9.10978 31.11 9.31193C31.2668 9.37824 31.4108 9.4688 31.5369 9.58363C31.5919 9.64508 31.6436 9.70977 31.6921 9.7777C31.7407 9.85047 31.7795 9.9281 31.8086 10.0106C31.8636 10.0801 31.9072 10.1594 31.938 10.2435C31.9444 10.3292 31.9444 10.4165 31.938 10.5022C31.9331 10.8451 31.7989 11.1734 31.5628 11.4208C31.4398 11.5389 31.2943 11.6311 31.1358 11.6925C30.9806 11.7588 30.814 11.7944 30.6442 11.796H30.6442Z" fill="white"/>
<path d="M9.9434 31.2061C9.22856 31.2061 8.6496 30.6271 8.6496 29.9123V6.62388C8.6496 5.90904 9.22856 5.33008 9.9434 5.33008C10.6582 5.33008 11.2372 5.90904 11.2372 6.62388V29.9123C11.2372 30.2551 11.1014 30.5851 10.8588 30.8276C10.6162 31.0702 10.2863 31.2061 9.94341 31.2061L9.9434 31.2061Z" fill="white"/>
</svg>
