<svg width="24" height="24" viewBox="0 0 24 24" fill="none" xmlns="http://www.w3.org/2000/svg">
<g clip-path="url(#clip0_252_292)">
<path d="M20.6438 9.75L18.7688 6.49688C18.5456 6.11526 18.2301 5.79592 17.8511 5.56829C17.4722 5.34066 17.042 5.21205 16.6003 5.1943C16.1586 5.17656 15.7195 5.27026 15.3236 5.46676C14.9276 5.66326 14.5874 5.95626 14.3344 6.31875L12.7125 3.50625C12.3634 2.90311 11.7896 2.46285 11.1166 2.28187C10.4437 2.10089 9.7264 2.19393 9.12188 2.54063C8.74553 2.7628 8.4274 3.07128 8.19375 3.44063C7.88545 3.16428 7.51594 2.96507 7.11563 2.85938C6.78386 2.76604 6.43657 2.74117 6.09489 2.7863C5.75321 2.83143 5.42429 2.9456 5.12813 3.12187C4.82888 3.29293 4.56639 3.52146 4.35575 3.7943C4.14511 4.06715 3.99048 4.37893 3.90075 4.71174C3.81101 5.04455 3.78794 5.39181 3.83286 5.73356C3.87778 6.07531 3.98981 6.40481 4.1625 6.70312L4.48125 7.24688C4.09156 7.28014 3.71392 7.39855 3.375 7.59375C2.77598 7.94434 2.33952 8.51716 2.16047 9.18774C1.98141 9.85832 2.07423 10.5725 2.41875 11.175L6.35625 18C6.88945 18.9544 7.60702 19.7934 8.46726 20.468C9.32751 21.1427 10.3133 21.6397 11.3673 21.9301C12.4213 22.2204 13.5224 22.2984 14.6068 22.1595C15.6912 22.0206 16.7372 21.6676 17.684 21.1209C18.6307 20.5742 19.4594 19.8448 20.1218 18.975C20.7842 18.1053 21.2671 17.1126 21.5425 16.0546C21.8179 14.9966 21.8803 13.8944 21.726 12.8121C21.5717 11.7298 21.2038 10.6889 20.6438 9.75V9.75ZM20.0156 15.6188C19.7903 16.4759 19.3966 17.2797 18.8574 17.9831C18.3182 18.6865 17.6443 19.2754 16.875 19.7156C15.3243 20.61 13.4821 20.8527 11.7526 20.3904C10.0232 19.9282 8.54774 18.7988 7.65 17.25L3.7125 10.425C3.56332 10.1664 3.52297 9.85916 3.60033 9.57082C3.67769 9.28248 3.86642 9.03668 4.125 8.8875C4.38359 8.73832 4.69085 8.69796 4.97919 8.77532C5.26752 8.85268 5.51332 9.04141 5.6625 9.3L7.725 12.8719C7.77425 12.9574 7.83987 13.0325 7.91811 13.0927C7.99635 13.1529 8.08568 13.1971 8.18101 13.2228C8.27633 13.2484 8.37578 13.2551 8.47368 13.2423C8.57158 13.2296 8.666 13.1977 8.75157 13.1484C8.83713 13.0992 8.91216 13.0336 8.97236 12.9553C9.03257 12.8771 9.07677 12.7878 9.10246 12.6924C9.12814 12.5971 9.13479 12.4977 9.12204 12.3998C9.10929 12.3019 9.07738 12.2074 9.02813 12.1219L6.96563 8.55L5.46563 5.95312C5.31655 5.6949 5.27609 5.38805 5.35313 5.1C5.39035 4.95658 5.456 4.8221 5.54618 4.70454C5.63637 4.58697 5.74925 4.48873 5.87813 4.41562C6.13636 4.26655 6.44321 4.22609 6.73125 4.30313C7.01783 4.38475 7.26255 4.57248 7.41563 4.82812L8.15625 6.13125H8.16563L10.6031 10.35C10.6664 10.4656 10.7602 10.5617 10.8742 10.6278C10.9883 10.6939 11.1182 10.7275 11.25 10.725C11.3823 10.7276 11.5126 10.6918 11.625 10.6219C11.7961 10.522 11.9207 10.3585 11.9717 10.167C12.0226 9.97554 11.9957 9.7717 11.8969 9.6L9.45938 5.38125C9.3102 5.12266 9.26984 4.81541 9.3472 4.52707C9.42456 4.23873 9.61329 3.99293 9.87188 3.84375C10.1305 3.69457 10.4377 3.65421 10.7261 3.73157C11.0144 3.80893 11.2602 3.99766 11.4094 4.25625L14.2219 9.12188L14.8125 10.1531C13.9955 10.833 13.4449 11.7797 13.258 12.826C13.071 13.8724 13.2597 14.9511 13.7906 15.8719C13.8978 16.0273 14.0596 16.1366 14.2438 16.178C14.428 16.2194 14.621 16.1898 14.7843 16.0951C14.9476 16.0004 15.0692 15.8476 15.1248 15.6672C15.1805 15.4868 15.166 15.2921 15.0844 15.1219C14.6868 14.4331 14.5791 13.6146 14.7847 12.8464C14.9904 12.0781 15.4927 11.423 16.1813 11.025C16.2679 10.9756 16.344 10.9096 16.4051 10.8308C16.4662 10.7519 16.5112 10.6618 16.5375 10.5656C16.5833 10.3753 16.5565 10.1748 16.4625 10.0031L15.525 8.37188C15.4165 8.17933 15.367 7.95908 15.3829 7.73861C15.3988 7.51815 15.4792 7.30724 15.6142 7.13223C15.7492 6.95722 15.9328 6.82586 16.142 6.75454C16.3513 6.68323 16.5768 6.67513 16.7906 6.73125C16.9316 6.76849 17.0638 6.83321 17.1796 6.9217C17.2954 7.01018 17.3926 7.1207 17.4656 7.24688L19.3406 10.5C19.7889 11.2651 20.0795 12.1121 20.1954 12.9912C20.3114 13.8702 20.2502 14.7636 20.0156 15.6188V15.6188ZM8.22188 22.9313C8.15109 23.0293 8.05816 23.1093 7.95064 23.1647C7.84313 23.22 7.72407 23.2493 7.60313 23.25C7.44982 23.2481 7.30023 23.2026 7.17188 23.1188C5.80831 22.1766 4.67407 20.9398 3.85313 19.5C3.79443 19.4148 3.75398 19.3185 3.73432 19.2169C3.71466 19.1154 3.71621 19.0109 3.73888 18.91C3.76154 18.8091 3.80484 18.7139 3.86604 18.6306C3.92723 18.5472 4.00502 18.4774 4.09449 18.4255C4.18397 18.3736 4.28321 18.3408 4.38597 18.3291C4.48874 18.3175 4.59281 18.3272 4.69164 18.3576C4.79047 18.3881 4.88193 18.4387 4.96028 18.5062C5.03862 18.5738 5.10215 18.6567 5.14688 18.75C5.86328 19.9964 6.84997 21.0664 8.03438 21.8812C8.19736 21.9965 8.30842 22.1713 8.34351 22.3678C8.3786 22.5643 8.3349 22.7667 8.22188 22.9313V22.9313ZM15.75 2.90625C15.75 2.70734 15.829 2.51657 15.9697 2.37592C16.1103 2.23527 16.3011 2.15625 16.5 2.15625C17.4876 2.15751 18.4576 2.41792 19.3131 2.91146C20.1686 3.405 20.8796 4.11439 21.375 4.96875C21.4248 5.05402 21.4571 5.14838 21.4699 5.2463C21.4827 5.34422 21.4758 5.44371 21.4496 5.53893C21.4234 5.63414 21.3784 5.72315 21.3173 5.80072C21.2562 5.87829 21.1802 5.94286 21.0938 5.99063C20.9818 6.06157 20.8512 6.09747 20.7188 6.09375C20.5876 6.09329 20.4588 6.05841 20.3453 5.99261C20.2317 5.92681 20.1375 5.83238 20.0719 5.71875C19.7099 5.09174 19.1892 4.57106 18.5622 4.20902C17.9352 3.84697 17.224 3.65633 16.5 3.65625C16.3011 3.65625 16.1103 3.57723 15.9697 3.43658C15.829 3.29593 15.75 3.10516 15.75 2.90625Z" fill="#003B76"/>
</g>
<defs>
<clipPath id="clip0_252_292">
<rect width="24" height="24" fill="white"/>
</clipPath>
</defs>
</svg>
