<svg width="40" height="40" viewBox="0 0 40 40" fill="none" xmlns="http://www.w3.org/2000/svg">
<circle cx="20" cy="20" r="20" fill="#9C5AF2"/>
<path d="M28.88 23.84H28.1122C28.0644 23.7678 28.04 23.6722 27.9678 23.6C27.6556 23.1678 27.1522 22.88 26.6 22.8078C25.2322 22.6634 23.6245 22.6634 22.2555 22.8078C21.7034 22.8556 21.1999 23.1678 20.8634 23.6234C20.839 23.6478 20.839 23.6713 20.839 23.6713C20.2868 23.4791 19.6868 23.4791 19.1346 23.6713C19.1102 23.6469 19.1102 23.6234 19.1102 23.6234C18.798 23.1678 18.2946 22.8791 17.718 22.8078C16.3502 22.6634 14.7425 22.6634 13.3735 22.8078C12.8214 22.8556 12.3414 23.1434 12.0057 23.6C11.9579 23.6722 11.9101 23.7678 11.8614 23.84H11.1198C10.8554 23.84 10.592 24.0322 10.5676 24.32C10.5432 24.6322 10.7832 24.8956 11.0954 24.8956H11.6954C11.6954 24.9678 11.6954 25.0634 11.7198 25.1356L11.912 26.0234C12.2242 27.5591 13.5676 28.639 15.1275 28.6634H15.9431H15.9675C17.4797 28.6634 18.7997 27.6312 19.183 26.1679L19.423 25.2079C19.423 25.1601 19.4474 25.1357 19.4474 25.0879C19.4952 24.8235 19.7118 24.6079 19.9996 24.6079H20.0474C20.3352 24.6079 20.5518 24.8235 20.5996 25.0879C20.5996 25.1357 20.624 25.1835 20.624 25.2079L20.864 26.1679C21.224 27.6557 22.544 28.6634 24.0795 28.6634H24.1039H24.9195C26.4551 28.6391 27.824 27.5356 28.135 26.0234L28.3272 25.1356C28.3516 25.0634 28.3516 24.9678 28.3516 24.8956H28.9516C29.2638 24.8956 29.5038 24.6312 29.4794 24.32C29.4072 24.0322 29.1438 23.84 28.8794 23.84H28.88Z" fill="white"/>
<path d="M26.2881 12.9678C25.8324 11.7678 24.5603 11.0956 23.3125 11.3834L20.5525 12.0078C20.1682 12.1034 19.7847 12.1034 19.4003 12.0078L16.6403 11.3834C15.3925 11.0956 14.1448 11.7678 13.6648 12.9678L11.697 18.0555H28.2325L26.2881 12.9678Z" fill="white"/>
<path d="M31.1846 20.5278L29.1202 19.0878H10.8802L8.81582 20.5034C8.40801 20.8156 8.60019 21.4399 9.10456 21.4399H30.8968C31.4002 21.4399 31.5924 20.8156 31.1846 20.5278Z" fill="white"/>
</svg>
