<?xml version="1.0" encoding="UTF-8"?>
<svg width="622px" height="205px" viewBox="0 0 622 205" version="1.1" xmlns="http://www.w3.org/2000/svg" xmlns:xlink="http://www.w3.org/1999/xlink">
    <title>Path</title>
    <g id="Page-1" stroke="none" stroke-width="1" fill="none" fill-rule="evenodd">
        <g id="Artboard" transform="translate(-301.000000, -296.000000)" stroke="#0050FF" stroke-width="2"
            stroke-dasharray="1463"
            stroke-dashoffset={props.stroke-dashoffset}
        >
            <path d="M385.789062,313.496094 C388.653646,341.81901 417.015625,348.89974 470.875,334.738281 C551.664062,313.496094 543.730469,285.714844 615.53125,318.878906 C687.332031,352.042969 701.464844,363.292969 737.867188,349.015625 C774.269531,334.738281 816.527344,274.011719 857.425781,307.203125 C898.324219,340.394531 928.523438,357.667969 920.707031,387.394531 C912.890625,417.121094 815.863281,474.300781 782.910156,430.847656 C760.941406,401.878906 708.911458,404.856771 626.820312,439.78125 C501.604167,510.388044 421.260417,518.105492 385.789062,462.933594 C332.582031,380.175746 284.378906,355.980469 308.480469,334.738281 C324.548177,320.576823 350.317708,313.496094 385.789062,313.496094 Z" id="Path"></path>
        </g>
    </g>
</svg>