<svg width="46" height="46" viewBox="0 0 46 46" fill="none" xmlns="http://www.w3.org/2000/svg">
<g clip-path="url(#clip0_2_7339)">
<path fill-rule="evenodd" clip-rule="evenodd" d="M17.6821 5.3948C17.6821 2.41533 20.0975 0 23.0769 0C35.8224 0 46.1546 10.3322 46.1546 23.0777C46.1546 35.8232 35.8224 46.1554 23.0769 46.1554C20.0975 46.1554 17.6821 43.7401 17.6821 40.7606C17.6821 37.7811 20.0975 35.3658 23.0769 35.3658C29.8635 35.3658 35.365 29.8642 35.365 23.0777C35.365 16.2912 29.8635 10.7896 23.0769 10.7896C20.0975 10.7896 17.6821 8.37427 17.6821 5.3948Z" fill="#56C6FE"/>
<path fill-rule="evenodd" clip-rule="evenodd" d="M0 23.079C0 10.3335 10.3322 0.00128174 23.0777 0.00128174C26.0572 0.00128174 28.4725 2.41662 28.4725 5.39608C28.4725 8.37555 26.0572 10.7909 23.0777 10.7909C16.2912 10.7909 10.7896 16.2925 10.7896 23.079C10.7896 26.0585 8.37427 28.4738 5.3948 28.4738C2.41533 28.4738 0 26.0585 0 23.079Z" fill="#9C5AF2"/>
<path fill-rule="evenodd" clip-rule="evenodd" d="M5.3948 17.6829C8.37427 17.6829 10.7896 20.0982 10.7896 23.0777C10.7896 29.8642 16.2912 35.3658 23.0777 35.3658C26.0572 35.3658 28.4725 37.7811 28.4725 40.7606C28.4725 43.7401 26.0572 46.1554 23.0777 46.1554C10.3322 46.1554 0 35.8232 0 23.0777C0 20.0982 2.41533 17.6829 5.3948 17.6829Z" fill="#FE9900"/>
</g>
<defs>
<clipPath id="clip0_2_7339">
<rect width="46" height="46" fill="white"/>
</clipPath>
</defs>
</svg>
