<?xml version="1.0" encoding="UTF-8"?>
<svg width="221px" height="38px" viewBox="0 0 221 38" version="1.1" xmlns="http://www.w3.org/2000/svg" xmlns:xlink="http://www.w3.org/1999/xlink">
    <title>Group 4</title>
    <defs>
        <linearGradient x1="50%" y1="0%" x2="50%" y2="100%" id="linearGradient-1">
            <stop stop-color="#FFFFFF" offset="0%"></stop>
            <stop stop-color="#FFFFFF" offset="100%"></stop>
        </linearGradient>
    </defs>
    <g id="Page-1" stroke="none" stroke-width="1" fill="none" fill-rule="evenodd">
        <g id="Group-4" transform="translate(-0.000000, 0.000000)">
            <g id="Group-3">
                <rect id="Rectangle" fill="#0073E6" x="0" y="0" width="37.4431844" height="38" rx="2.81059063"></rect>
                <g id="Group" transform="translate(7.488637, 7.600000)">
                    <ellipse id="Oval" stroke="#FFFFFF" stroke-width="1.40529532" cx="11.2329553" cy="11.4" rx="10.5303077" ry="10.6973523"></ellipse>
                    <ellipse id="Oval" fill="url(#linearGradient-1)" cx="11.2329553" cy="11.4" rx="5.61647766" ry="5.7"></ellipse>
                    <ellipse id="Oval" stroke="#0073E6" stroke-width="1.87372709" fill="#56C6FE" cx="17.9727285" cy="19.38" rx="3.74510237" ry="3.78686354"></ellipse>
                </g>
            </g>
            <g id="MERCURY" transform="translate(52.323737, 6.895090)" fill="#0073E6" fill-rule="nonzero">
                <polygon id="Path" points="14.7321792 16.7230143 14.7321792 3.06822811 8.66598778 13.6313646 7.70570265 13.6313646 1.61608961 3.06822811 1.61608961 16.7230143 0 16.7230143 0 0.0936863544 1.66293279 0.0936863544 8.17413442 11.4765784 14.685336 0.0936863544 16.3482688 0.0936863544 16.3482688 16.7230143"></polygon>
                <polygon id="Path" points="41.1048883 15.2708758 41.1048883 16.7230143 29.9327906 16.7230143 29.9327906 0.0936863544 40.894094 0.0936863544 40.894094 1.54582485 31.5488802 1.54582485 31.5488802 7.54175153 39.699593 7.54175153 39.699593 8.92362525 31.5488802 8.92362525 31.5488802 15.2708758"></polygon>
                <path d="M53.6588602,16.7230143 L53.6588602,0.0936863544 L60.6619152,0.0936863544 C61.3801772,0.0936863544 62.0437889,0.24592668 62.6527502,0.550407332 C63.2617115,0.854887984 63.7847937,1.25305499 64.2219966,1.74490835 C64.6591996,2.23676171 64.9988127,2.79497624 65.2408357,3.41955193 C65.4828588,4.04412763 65.6038704,4.67651052 65.6038704,5.31670061 C65.6038704,5.92566191 65.5140876,6.50729803 65.3345221,7.06160896 C65.1549566,7.61591989 64.9012227,8.11558045 64.5733205,8.56059063 C64.2454182,9.00560081 63.8550584,9.38034623 63.402241,9.68482688 C62.9494237,9.98930754 62.4419559,10.1961982 61.8798378,10.305499 L65.9786158,16.7230143 L64.1283103,16.7230143 L60.1934834,10.586558 L55.2749498,10.586558 L55.2749498,16.7230143 L53.6588602,16.7230143 Z M55.2749498,9.13441955 L60.7321799,9.13441955 C61.2162261,9.13441955 61.6573327,9.0290224 62.0554997,8.81822811 C62.4536667,8.60743381 62.7932797,8.32247115 63.0743388,7.96334012 C63.3553979,7.6042091 63.5739994,7.19823489 63.7301433,6.74541752 C63.8862872,6.29260014 63.9643592,5.81636117 63.9643592,5.31670061 C63.9643592,4.81704005 63.8745764,4.33689749 63.6950109,3.87627291 C63.5154454,3.41564834 63.2734223,3.01357773 62.9689417,2.6700611 C62.664461,2.32654447 62.30533,2.0532926 61.8915486,1.8503055 C61.4777672,1.6473184 61.0444678,1.54582485 60.5916504,1.54582485 L55.2749498,1.54582485 L55.2749498,9.13441955 Z" id="Shape"></path>
                <path d="M77.4083514,8.29124236 C77.4083514,7.29192125 77.5840133,6.29650373 77.9353371,5.30498982 C78.286661,4.3134759 78.7980323,3.42735913 79.4694512,2.64663951 C80.1408701,1.86591989 80.9684329,1.2296334 81.9521396,0.737780041 C82.9358463,0.24592668 84.0522753,0 85.3014267,0 C86.784794,0 88.0495598,0.335709437 89.0957241,1.00712831 C90.1418884,1.67854718 90.922608,2.55295316 91.437883,3.63034623 L90.126274,4.42668024 C89.8608293,3.88017651 89.5407343,3.41955193 89.1659889,3.04480652 C88.7912434,2.6700611 88.3852692,2.36558045 87.9480663,2.13136456 C87.5108633,1.89714868 87.0580459,1.72929396 86.5896141,1.62780041 C86.1211823,1.52630686 85.6605578,1.47556008 85.2077404,1.47556008 C84.2084193,1.47556008 83.3262061,1.67854718 82.5611009,2.08452138 C81.7959956,2.49049559 81.151902,3.02138493 80.6288198,3.67718941 C80.1057377,4.33299389 79.7114743,5.07077393 79.4460296,5.89052953 C79.1805849,6.71028513 79.0478626,7.54175153 79.0478626,8.38492872 C79.0478626,9.30617787 79.2079101,10.188391 79.5280052,11.0315682 C79.8481002,11.8747454 80.2853032,12.6203327 80.8396141,13.2683299 C81.393925,13.9163272 82.0497295,14.4316022 82.8070276,14.8141548 C83.5643256,15.1967074 84.3879848,15.3879837 85.2780052,15.3879837 C85.7464369,15.3879837 86.2265795,15.3294297 86.7184329,15.2123218 C87.2102862,15.0952138 87.6865252,14.9078411 88.1471498,14.6502037 C88.6077743,14.3925662 89.0332665,14.0724711 89.4236263,13.6899185 C89.8139861,13.3073659 90.1418884,12.8428377 90.4073331,12.296334 L91.7657852,12.9989817 C91.5003405,13.6235574 91.1255951,14.1739647 90.6415489,14.6502037 C90.1575028,15.1264426 89.6188062,15.5285132 89.0254593,15.8564155 C88.4321124,16.1843177 87.8036331,16.434148 87.1400214,16.6059063 C86.4764098,16.7776646 85.8245089,16.8635438 85.1843188,16.8635438 C84.0444682,16.8635438 82.9983039,16.6137135 82.0458259,16.114053 C81.093348,15.6143924 80.2735924,14.9624915 79.5865591,14.1583503 C78.8995259,13.3542091 78.3647329,12.4407671 77.9821803,11.4180244 C77.5996277,10.3952817 77.4083514,9.35302105 77.4083514,8.29124236 Z" id="Path"></path>
                <path d="M110.713851,15.3645621 C111.760015,15.3645621 112.630517,15.1654786 113.325358,14.7673116 C114.020198,14.3691446 114.574509,13.8460625 114.988291,13.1980652 C115.402072,12.5500679 115.690938,11.8122878 115.854889,10.9847251 C116.018841,10.1571623 116.100816,9.32179226 116.100816,8.47861507 L116.100816,0.0936863544 L117.740327,0.0936863544 L117.740327,8.47861507 C117.740327,9.60285132 117.615412,10.6685336 117.365582,11.6756619 C117.115752,12.6827902 116.713681,13.568907 116.15937,14.3340122 C115.605059,15.0991174 114.882893,15.7080788 113.992873,16.1608961 C113.102853,16.6137135 112.017652,16.8401222 110.737272,16.8401222 C109.410049,16.8401222 108.301427,16.6020027 107.411407,16.1257637 C106.521386,15.6495248 105.803124,15.0210455 105.256621,14.2403259 C104.710117,13.4596062 104.319757,12.5695859 104.085541,11.5702648 C103.851325,10.5709437 103.734217,9.54039375 103.734217,8.47861507 L103.734217,0.0936863544 L105.350307,0.0936863544 L105.350307,8.47861507 C105.350307,9.35302105 105.436186,10.2040054 105.607944,11.0315682 C105.779703,11.859131 106.072473,12.5930075 106.486254,13.2331976 C106.900035,13.8733876 107.450443,14.3886626 108.137476,14.7790224 C108.824509,15.1693822 109.683301,15.3645621 110.713851,15.3645621 Z" id="Path"></path>
                <path d="M131.04379,16.7230143 L131.04379,0.0936863544 L138.046845,0.0936863544 C138.765107,0.0936863544 139.428719,0.24592668 140.03768,0.550407332 C140.646641,0.854887984 141.169723,1.25305499 141.606926,1.74490835 C142.044129,2.23676171 142.383742,2.79497624 142.625766,3.41955193 C142.867789,4.04412763 142.9888,4.67651052 142.9888,5.31670061 C142.9888,5.92566191 142.899017,6.50729803 142.719452,7.06160896 C142.539886,7.61591989 142.286153,8.11558045 141.95825,8.56059063 C141.630348,9.00560081 141.239988,9.38034623 140.787171,9.68482688 C140.334353,9.98930754 139.826886,10.1961982 139.264768,10.305499 L143.363546,16.7230143 L141.51324,16.7230143 L137.578413,10.586558 L132.65988,10.586558 L132.65988,16.7230143 L131.04379,16.7230143 Z M132.65988,9.13441955 L138.11711,9.13441955 C138.601156,9.13441955 139.042262,9.0290224 139.440429,8.81822811 C139.838597,8.60743381 140.17821,8.32247115 140.459269,7.96334012 C140.740328,7.6042091 140.958929,7.19823489 141.115073,6.74541752 C141.271217,6.29260014 141.349289,5.81636117 141.349289,5.31670061 C141.349289,4.81704005 141.259506,4.33689749 141.079941,3.87627291 C140.900375,3.41564834 140.658352,3.01357773 140.353871,2.6700611 C140.049391,2.32654447 139.69026,2.0532926 139.276478,1.8503055 C138.862697,1.6473184 138.429398,1.54582485 137.97658,1.54582485 L132.65988,1.54582485 L132.65988,9.13441955 Z" id="Shape"></path>
                <polygon id="Path" points="155.097762 0.0936863544 160.554992 9.0407332 166.035644 0.0936863544 167.815684 0.0936863544 161.351326 10.5397149 161.351326 16.7230143 159.735236 16.7230143 159.735236 10.4928717 153.317721 0.0936863544"></polygon>
            </g>
            <text id="DSYS-2.0" opacity="0.634678432" font-family="Roboto-Medium, Roboto" font-size="7.02647658" font-weight="400" fill="#597897">
                <tspan x="51.0038602" y="34.6070633">DSYS 2.0</tspan>
            </text>
        </g>
    </g>
</svg>