<svg width="200" height="117" viewBox="0 0 200 117" fill="none" xmlns="http://www.w3.org/2000/svg">
<path d="M90.5664 92.8438L87.8711 92.1992L88.8438 83.5508H98.4297V86.2812H91.6211L91.1992 90.0664C91.4258 89.9336 91.7695 89.793 92.2305 89.6445C92.6914 89.4883 93.207 89.4102 93.7773 89.4102C94.6055 89.4102 95.3398 89.5391 95.9805 89.7969C96.6211 90.0547 97.1641 90.4297 97.6094 90.9219C98.0625 91.4141 98.4062 92.0156 98.6406 92.7266C98.875 93.4375 98.9922 94.2422 98.9922 95.1406C98.9922 95.8984 98.875 96.6211 98.6406 97.3086C98.4062 97.9883 98.0508 98.5977 97.5742 99.1367C97.0977 99.668 96.5 100.086 95.7812 100.391C95.0625 100.695 94.2109 100.848 93.2266 100.848C92.4922 100.848 91.7812 100.738 91.0938 100.52C90.4141 100.301 89.8008 99.9766 89.2539 99.5469C88.7148 99.1172 88.2812 98.5977 87.9531 97.9883C87.6328 97.3711 87.4648 96.668 87.4492 95.8789H90.8008C90.8477 96.3633 90.9727 96.7812 91.1758 97.1328C91.3867 97.4766 91.6641 97.7422 92.0078 97.9297C92.3516 98.1172 92.7539 98.2109 93.2148 98.2109C93.6445 98.2109 94.0117 98.1289 94.3164 97.9648C94.6211 97.8008 94.8672 97.5742 95.0547 97.2852C95.2422 96.9883 95.3789 96.6445 95.4648 96.2539C95.5586 95.8555 95.6055 95.4258 95.6055 94.9648C95.6055 94.5039 95.5508 94.0859 95.4414 93.7109C95.332 93.3359 95.1641 93.0117 94.9375 92.7383C94.7109 92.4648 94.4219 92.2539 94.0703 92.1055C93.7266 91.957 93.3242 91.8828 92.8633 91.8828C92.2383 91.8828 91.7539 91.9805 91.4102 92.1758C91.0742 92.3711 90.793 92.5938 90.5664 92.8438ZM112.656 90.582V93.5352C112.656 94.8164 112.52 95.9219 112.246 96.8516C111.973 97.7734 111.578 98.5312 111.062 99.125C110.555 99.7109 109.949 100.145 109.246 100.426C108.543 100.707 107.762 100.848 106.902 100.848C106.215 100.848 105.574 100.762 104.98 100.59C104.387 100.41 103.852 100.133 103.375 99.7578C102.906 99.3828 102.5 98.9102 102.156 98.3398C101.82 97.7617 101.562 97.0742 101.383 96.2773C101.203 95.4805 101.113 94.5664 101.113 93.5352V90.582C101.113 89.3008 101.25 88.2031 101.523 87.2891C101.805 86.3672 102.199 85.6133 102.707 85.0273C103.223 84.4414 103.832 84.0117 104.535 83.7383C105.238 83.457 106.02 83.3164 106.879 83.3164C107.566 83.3164 108.203 83.4062 108.789 83.5859C109.383 83.7578 109.918 84.0273 110.395 84.3945C110.871 84.7617 111.277 85.2344 111.613 85.8125C111.949 86.3828 112.207 87.0664 112.387 87.8633C112.566 88.6523 112.656 89.5586 112.656 90.582ZM109.27 93.9805V90.125C109.27 89.5078 109.234 88.9688 109.164 88.5078C109.102 88.0469 109.004 87.6562 108.871 87.3359C108.738 87.0078 108.574 86.7422 108.379 86.5391C108.184 86.3359 107.961 86.1875 107.711 86.0938C107.461 86 107.184 85.9531 106.879 85.9531C106.496 85.9531 106.156 86.0273 105.859 86.1758C105.57 86.3242 105.324 86.5625 105.121 86.8906C104.918 87.2109 104.762 87.6406 104.652 88.1797C104.551 88.7109 104.5 89.3594 104.5 90.125V93.9805C104.5 94.5977 104.531 95.1406 104.594 95.6094C104.664 96.0781 104.766 96.4805 104.898 96.8164C105.039 97.1445 105.203 97.4141 105.391 97.625C105.586 97.8281 105.809 97.9766 106.059 98.0703C106.316 98.1641 106.598 98.2109 106.902 98.2109C107.277 98.2109 107.609 98.1367 107.898 97.9883C108.195 97.832 108.445 97.5898 108.648 97.2617C108.859 96.9258 109.016 96.4883 109.117 95.9492C109.219 95.4102 109.27 94.7539 109.27 93.9805Z" fill="#597897"/>
<path d="M180 100.613C180 56.4305 144.183 20.6133 100 20.6133C55.8172 20.6133 20 56.4305 20 100.613" stroke="#F3F5F6" stroke-width="40"/>
<path d="M100 20.6133C55.8172 20.6133 20 56.4305 20 100.613" stroke="#56C6FE" stroke-width="40"/>
</svg>
