<svg width="24" height="24" viewBox="0 0 24 24" fill="none" xmlns="http://www.w3.org/2000/svg">
<g clip-path="url(#clip0_3665_31663)">
<path d="M12 21C16.9706 21 21 16.9706 21 12C21 7.02944 16.9706 3 12 3C7.02944 3 3 7.02944 3 12C3 16.9706 7.02944 21 12 21Z" stroke="#003B76" stroke-width="2.25" stroke-linecap="round" stroke-linejoin="round"/>
<path d="M8.625 11.625C9.45343 11.625 10.125 10.9534 10.125 10.125C10.125 9.29657 9.45343 8.625 8.625 8.625C7.79657 8.625 7.125 9.29657 7.125 10.125C7.125 10.9534 7.79657 11.625 8.625 11.625Z" fill="#003B76"/>
<path d="M15.375 11.625C16.2034 11.625 16.875 10.9534 16.875 10.125C16.875 9.29657 16.2034 8.625 15.375 8.625C14.5466 8.625 13.875 9.29657 13.875 10.125C13.875 10.9534 14.5466 11.625 15.375 11.625Z" fill="#003B76"/>
<path d="M15.4969 15.9187C15.075 15.3978 14.5421 14.9778 13.9371 14.6892C13.3321 14.4007 12.6703 14.251 12 14.251C11.3297 14.251 10.6679 14.4007 10.0629 14.6892C9.45789 14.9778 8.92499 15.3978 8.50311 15.9187" stroke="#003B76" stroke-width="2.25" stroke-linecap="round" stroke-linejoin="round"/>
</g>
<defs>
<clipPath id="clip0_3665_31663">
<rect width="24" height="24" fill="white"/>
</clipPath>
</defs>
</svg>
