<svg width="16" height="14" viewBox="0 0 16 14" fill="none" xmlns="http://www.w3.org/2000/svg">
<path fill-rule="evenodd" clip-rule="evenodd" d="M13.5533 4.22301e-07H15.4667C15.7612 4.22301e-07 16 0.241079 16 0.538463C16 0.835847 15.7612 1.07692 15.4667 1.07692H13.5533L11.7 2.94808L10.2933 11.4423C10.2319 11.8421 9.94973 12.1715 9.56667 12.2904C9.46116 12.3252 9.35098 12.3433 9.24 12.3442C8.9596 12.342 8.69136 12.2283 8.49333 12.0279L1.95333 5.425C1.67378 5.14072 1.57363 4.72327 1.69333 4.34135C1.81112 3.9546 2.13731 3.66971 2.53333 3.60769L10.9467 2.1875L12.8 0.316347C12.9992 0.113643 13.2705 -0.00025309 13.5533 4.22301e-07ZM3.46667 9.1534C3.46667 8.70732 3.1085 8.3457 2.66667 8.3457C2.22484 8.3457 1.86667 8.70732 1.86667 9.1534C1.86667 9.59947 2.22484 9.96109 2.66667 9.96109C3.1085 9.96109 3.46667 9.59947 3.46667 9.1534ZM0 11.0382C0 10.5921 0.358172 10.2305 0.8 10.2305C1.24183 10.2305 1.6 10.5921 1.6 11.0382C1.6 11.4842 1.24183 11.8459 0.8 11.8459C0.358172 11.8459 0 11.4842 0 11.0382ZM4.8 10.5C4.47643 10.5 4.18472 10.6968 4.0609 10.9986C3.93707 11.3004 4.00552 11.6478 4.23431 11.8788C4.46311 12.1098 4.80721 12.1789 5.10615 12.0539C5.40509 11.9289 5.6 11.6344 5.6 11.3077C5.6 10.8616 5.24183 10.5 4.8 10.5ZM3.73333 13.1923C3.73333 13.6384 3.37516 14 2.93333 14C2.49151 14 2.13333 13.6384 2.13333 13.1923C2.13333 12.7462 2.49151 12.3846 2.93333 12.3846C3.37516 12.3846 3.73333 12.7462 3.73333 13.1923Z" fill="#597897"/>
</svg>
