<svg width="17" height="18" viewBox="0 0 17 18" fill="none" xmlns="http://www.w3.org/2000/svg">
<path d="M15.3673 4.26562H1" stroke="#768EAF" stroke-width="1.95918" stroke-linecap="round" stroke-linejoin="round"/>
<path d="M6.22452 7.85742V13.0819" stroke="#768EAF" stroke-width="1.95918" stroke-linecap="round" stroke-linejoin="round"/>
<path d="M10.1429 7.85742V13.0819" stroke="#768EAF" stroke-width="1.95918" stroke-linecap="round" stroke-linejoin="round"/>
<path d="M14.0612 4.26562V16.3473C14.0612 16.5205 13.9924 16.6866 13.8699 16.809C13.7474 16.9315 13.5813 17.0003 13.4081 17.0003H2.95915C2.78595 17.0003 2.61984 16.9315 2.49737 16.809C2.3749 16.6866 2.30609 16.5205 2.30609 16.3473V4.26562" stroke="#768EAF" stroke-width="1.95918" stroke-linecap="round" stroke-linejoin="round"/>
<path d="M11.449 4.26531V2.30612C11.449 1.95972 11.3114 1.6275 11.0664 1.38255C10.8215 1.13761 10.4893 1 10.1429 1H6.22449C5.87808 1 5.54587 1.13761 5.30092 1.38255C5.05597 1.6275 4.91837 1.95972 4.91837 2.30612V4.26531" stroke="#768EAF" stroke-width="1.95918" stroke-linecap="round" stroke-linejoin="round"/>
</svg>
